<?xml version="1.0" standalone="no"?>
<!DOCTYPE svg PUBLIC "-//W3C//DTD SVG 20010904//EN"
 "http://www.w3.org/TR/2001/REC-SVG-20010904/DTD/svg10.dtd">
<svg version="1.0" xmlns="http://www.w3.org/2000/svg"
 width="1920.000000pt" height="1080.000000pt" viewBox="0 0 1920.000000 1080.000000"
 preserveAspectRatio="xMidYMid meet">

<g transform="translate(0.000000,1080.000000) scale(0.100000,-0.100000)"
fill="#000000" stroke="none">
<path d="M10020 8360 l0 -470 4245 0 4245 0 -2 468 -3 467 -4242 3 -4243 2 0
-470z"/>
<path d="M6425 8470 c-519 -31 -965 -215 -1308 -540 -300 -284 -492 -664 -564
-1116 -24 -150 -24 -493 1 -658 119 -813 649 -1400 1446 -1601 345 -87 768
-90 1115 -8 836 198 1391 816 1495 1667 14 114 14 383 0 506 -59 526 -274 948
-648 1276 -381 334 -948 508 -1537 474z m310 -831 c506 -62 862 -384 970 -879
26 -120 31 -376 10 -501 -82 -492 -397 -822 -885 -926 -114 -24 -410 -24 -518
1 -454 102 -761 403 -863 846 -26 111 -37 384 -20 500 50 338 243 640 512 801
226 135 513 192 794 158z"/>
<path d="M460 6480 l0 -1920 1275 0 1275 0 0 410 0 410 -840 0 -840 0 0 1510
0 1510 -435 0 -435 0 0 -1920z"/>
<path d="M10091 6208 c22 -57 354 -920 737 -1918 l698 -1815 425 -3 426 -2 20
52 c12 29 341 888 733 1908 392 1020 715 1861 717 1868 4 9 -92 12 -458 12
l-464 0 -479 -1283 c-263 -705 -482 -1285 -486 -1290 -7 -8 -316 805 -741
1945 l-234 628 -467 0 -466 0 39 -102z"/>
<path d="M15500 4390 l0 -1920 430 0 430 0 0 1175 c0 646 3 1175 8 1175 4 0
387 -529 852 -1175 l845 -1175 368 0 367 0 0 1920 0 1920 -430 0 -430 0 -2
-1170 -3 -1170 -848 1170 -849 1170 -369 0 -369 0 0 -1920z"/>
<path d="M190 2470 l0 -470 4245 0 4245 0 0 470 0 470 -4245 0 -4245 0 0 -470z"/>
</g>
</svg>
